<svg width="24" height="24" viewBox="0 0 24 24" xmlns="http://www.w3.org/2000/svg">
    <g fill="currentColor">
        <path d="M4 5.25h16c.41 0 .75-.34.75-.75 0-.42-.34-.75-.75-.75H4c-.42 0-.75.33-.75.75 0 .41.33.75.75.75Z" />
        <path d="M4 10.25h12c.41 0 .75-.34.75-.75 0-.42-.34-.75-.75-.75H4c-.42 0-.75.33-.75.75 0 .41.33.75.75.75Z" />
        <path d="M4 15.25h16c.41 0 .75-.34.75-.75 0-.42-.34-.75-.75-.75H4c-.42 0-.75.33-.75.75 0 .41.33.75.75.75Z" />
        <path d="M4 20.25h8c.41 0 .75-.34.75-.75 0-.42-.34-.75-.75-.75H4c-.42 0-.75.33-.75.75 0 .41.33.75.75.75Z" />
    </g>
</svg>