<svg width="24" height="24" viewBox="0 0 24 24" xmlns="http://www.w3.org/2000/svg">
    <g fill="currentColor">
        <path d="M20 3.75H4c-.42 0-.75.33-.75.75 0 .41.33.75.75.75h16c.41 0 .75-.34.75-.75 0-.42-.34-.75-.75-.75Z" />
        <path d="M20 8.75H8c-.42 0-.75.33-.75.75 0 .41.33.75.75.75h12c.41 0 .75-.34.75-.75 0-.42-.34-.75-.75-.75Z" />
        <path d="M20 13.75H4c-.42 0-.75.33-.75.75 0 .41.33.75.75.75h16c.41 0 .75-.34.75-.75 0-.42-.34-.75-.75-.75Z" />
        <path d="M20 18.75h-8c-.42 0-.75.33-.75.75 0 .41.33.75.75.75h8c.41 0 .75-.34.75-.75 0-.42-.34-.75-.75-.75Z" />
    </g>
</svg>