<svg width="24" height="24" viewBox="0 0 24 24" xmlns="http://www.w3.org/2000/svg"
    xmlns:xlink="http://www.w3.org/1999/xlink">
    <g fill="currentColor">
        <path
            d="M7 6.75h5.875c1.24 0 2.25 1 2.25 2.25 0 1.24-1.01 2.25-2.25 2.25H7l.75.75V6L7 6.75Zm0-1.5c-.42 0-.75.33-.75.75v6c0 .41.33.75.75.75h5.875c2.07 0 3.75-1.68 3.75-3.75 0-2.08-1.68-3.75-3.75-3.75H7Z" />
        <path
            d="M7 12.75h7c1.24 0 2.25 1 2.25 2.25 0 1.24-1.01 2.25-2.25 2.25H7l.75.75v-6l-.75.75Zm0-1.5c-.42 0-.75.33-.75.75v6c0 .41.33.75.75.75h7c2.07 0 3.75-1.68 3.75-3.75 0-2.08-1.68-3.75-3.75-3.75H7Z" />
    </g>
</svg>