<svg width="24" height="24" viewBox="0 0 24 24" xmlns="http://www.w3.org/2000/svg">
    <g fill="currentColor">
        <path d="M4 20.75h16c.41 0 .75-.34.75-.75 0-.42-.34-.75-.75-.75H4c-.42 0-.75.33-.75.75 0 .41.33.75.75.75Z" />
        <path d="M4 16.75h16c.41 0 .75-.34.75-.75 0-.42-.34-.75-.75-.75H4c-.42 0-.75.33-.75.75 0 .41.33.75.75.75Z" />
        <path d="M4 12.75h16c.41 0 .75-.34.75-.75 0-.42-.34-.75-.75-.75H4c-.42 0-.75.33-.75.75 0 .41.33.75.75.75Z" />
        <path d="M12 8.75h8c.41 0 .75-.34.75-.75 0-.42-.34-.75-.75-.75h-8c-.42 0-.75.33-.75.75 0 .41.33.75.75.75Z" />
        <path d="M12 4.75h8c.41 0 .75-.34.75-.75 0-.42-.34-.75-.75-.75h-8c-.42 0-.75.33-.75.75 0 .41.33.75.75.75Z" />
        <path d="M9 5.25H4c-.42 0-.75.33-.75.75 0 .41.33.75.75.75h5c.41 0 .75-.34.75-.75 0-.42-.34-.75-.75-.75Z" />
        <path
            d="M7.53 8.53l2-2c.29-.3.29-.77 0-1.07l-2-2c-.3-.3-.77-.3-1.07 0 -.3.29-.3.76 0 1.06l2 2V5.45l-2 2c-.3.29-.3.76 0 1.06 .29.29.76.29 1.06 0Z" />
    </g>
</svg>