<svg width="24" height="24" viewBox="0 0 24 24" xmlns="http://www.w3.org/2000/svg">
    <g fill="currentColor">
        <path
            d="M12.77 5.81l-3 12c-.11.4.14.8.54.9 .4.1.8-.15.9-.55l3-12c.1-.41-.15-.81-.55-.91 -.41-.11-.81.14-.91.54Z" />
        <path d="M14 17.25H7c-.42 0-.75.33-.75.75 0 .41.33.75.75.75h7c.41 0 .75-.34.75-.75 0-.42-.34-.75-.75-.75Z" />
        <path d="M10 6.75h7c.41 0 .75-.34.75-.75 0-.42-.34-.75-.75-.75h-7c-.42 0-.75.33-.75.75 0 .41.33.75.75.75Z" />
    </g>
</svg>