<svg width="24" height="24" viewBox="0 0 24 24" xmlns="http://www.w3.org/2000/svg">
    <g fill="currentColor">
        <path
            d="M9.46 13.53l.95.95c1.85 1.85 4.86 1.85 6.71 0l3.03-3.04c2.1-2.11 2.1-5.52 0-7.63 -2.11-2.11-5.52-2.11-7.63-.01l-.89.88c-.3.29-.3.76 0 1.06 .29.29.76.29 1.06-.01l.88-.89c1.51-1.52 3.98-1.52 5.5 0 1.51 1.51 1.51 3.98-.01 5.5l-3.04 3.03c-1.27 1.26-3.33 1.26-4.6-.01l-.96-.96c-.3-.3-.77-.3-1.07 0 -.3.29-.3.76 0 1.06Z" />
        <path
            d="M14.53 9.46l-.96-.96c-1.86-1.86-4.87-1.86-6.72-.01l-3.04 3.03c-2.11 2.1-2.11 5.51-.01 7.62 2.1 2.1 5.51 2.1 7.62 0l.88-.89c.29-.3.29-.77-.01-1.07 -.3-.3-.77-.3-1.07 0l-.89.88c-1.52 1.51-3.99 1.51-5.51-.01 -1.52-1.52-1.52-3.99 0-5.51L7.85 9.5c1.26-1.27 3.32-1.27 4.59 0l.95.95c.29.29.76.29 1.06 0 .29-.3.29-.77 0-1.07Z" />
    </g>
</svg>