<svg width="24" height="24" viewBox="0 0 24 24" xmlns="http://www.w3.org/2000/svg">
    <g fill="currentColor">
        <path
            d="M17.75 12c0-.14.11-.25.25-.25 .13 0 .25.11.25.25 0 .13-.12.25-.25.25 -.14 0-.25-.12-.25-.25 0 .41.33.75.75.75 .41 0 .75-.34.75-.75 0-.7-.56-1.25-1.25-1.25 -.7 0-1.25.55-1.25 1.25 0 .69.55 1.25 1.25 1.25 .69 0 1.25-.56 1.25-1.25 0-.42-.34-.75-.75-.75 -.42 0-.75.33-.75.75Z" />
        <path
            d="M11.75 12c0-.14.11-.25.25-.25 .13 0 .25.11.25.25 0 .13-.12.25-.25.25 -.14 0-.25-.12-.25-.25 0 .41.33.75.75.75 .41 0 .75-.34.75-.75 0-.7-.56-1.25-1.25-1.25 -.7 0-1.25.55-1.25 1.25 0 .69.55 1.25 1.25 1.25 .69 0 1.25-.56 1.25-1.25 0-.42-.34-.75-.75-.75 -.42 0-.75.33-.75.75Z" />
        <path
            d="M5.75 12c0-.14.11-.25.25-.25 .13 0 .25.11.25.25 0 .13-.12.25-.25.25 -.14 0-.25-.12-.25-.25 0 .41.33.75.75.75 .41 0 .75-.34.75-.75 0-.7-.56-1.25-1.25-1.25 -.7 0-1.25.55-1.25 1.25 0 .69.55 1.25 1.25 1.25 .69 0 1.25-.56 1.25-1.25 0-.42-.34-.75-.75-.75 -.42 0-.75.33-.75.75Z" />
    </g>
</svg>