<svg width="24" height="24" viewBox="0 0 24 24" xmlns="http://www.w3.org/2000/svg">
    <g fill="currentColor">
        <path d="M11 4.75h9c.41 0 .75-.34.75-.75 0-.42-.34-.75-.75-.75h-9c-.42 0-.75.33-.75.75 0 .41.33.75.75.75Z" />
        <path
            d="M11.15 9.75H20c.41 0 .75-.34.75-.75 0-.42-.34-.75-.75-.75h-8.85c-.42 0-.75.33-.75.75 0 .41.33.75.75.75Z" />
        <path
            d="M6 9V4c0-.67-.81-1.01-1.29-.54L3.46 4.71c-.3.29-.3.76 0 1.06 .29.29.76.29 1.06 0l1.25-1.25 -1.29-.54v5c0 .41.33.75.75.75 .41 0 .75-.34.75-.75Z" />
        <path d="M11 14.75h9c.41 0 .75-.34.75-.75 0-.42-.34-.75-.75-.75h-9c-.42 0-.75.33-.75.75 0 .41.33.75.75.75Z" />
        <path
            d="M11.15 19.75H20c.41 0 .75-.34.75-.75 0-.42-.34-.75-.75-.75h-8.85c-.42 0-.75.33-.75.75 0 .41.33.75.75.75Z" />
        <path
            d="M4.75 15c0-.14.11-.25.25-.25h.61c.2 0 .38.13.45.32 .05.15.01.33-.1.46L3.41 18.5c-.42.48-.08 1.23.56 1.23h3c.41 0 .75-.34.75-.75 0-.42-.34-.75-.75-.75h-3l.56 1.23 2.54-2.98c.45-.53.59-1.26.37-1.92 -.27-.81-1.03-1.36-1.88-1.36l-.62-.001c-.97 0-1.75.78-1.75 1.75 0 .41.33.75.75.75 .41 0 .75-.34.75-.75Z" />
        <path d="M4 9.75h2.5c.41 0 .75-.34.75-.75 0-.42-.34-.75-.75-.75H4c-.42 0-.75.33-.75.75 0 .41.33.75.75.75Z" />
    </g>
</svg>