<svg width="24" height="24" viewBox="0 0 24 24" xmlns="http://www.w3.org/2000/svg">
    <g fill="currentColor">
        <path
            d="M16.46 5.53l3 3V7.46l-3 3c-.3.29-.3.76 0 1.06 .29.29.76.29 1.06 0l3-3c.29-.3.29-.77 0-1.07l-3-3c-.3-.3-.77-.3-1.07 0 -.3.29-.3.76 0 1.06Z" />
        <path
            d="M20 7.25h-9c-3.7 0-6.75 2.81-6.75 6.25 0 3.43 3.05 6.25 6.75 6.25h8c.41 0 .75-.34.75-.75 0-.42-.34-.75-.75-.75h-8c-2.89 0-5.25-2.18-5.25-4.75 0-2.58 2.36-4.75 5.25-4.75h9c.41 0 .75-.34.75-.75 0-.42-.34-.75-.75-.75Z" />
    </g>
</svg>