<svg width="24" height="24" viewBox="0 0 24 24" xmlns="http://www.w3.org/2000/svg">
    <g fill="currentColor">
        <path
            d="M7.46 4.46l-3 3c-.3.29-.3.76 0 1.06l3 3c.29.29.76.29 1.06 0 .29-.3.29-.77 0-1.07l-3-3v1.06l3-3c.29-.3.29-.77 0-1.07 -.3-.3-.77-.3-1.07 0Z" />
        <path
            d="M5 8.75h9c2.91 0 5.25 2.14 5.25 4.75 0 2.6-2.34 4.75-5.25 4.75H6c-.42 0-.75.33-.75.75 0 .41.33.75.75.75h8c3.71 0 6.75-2.79 6.75-6.25 0-3.47-3.04-6.25-6.75-6.25H5c-.42 0-.75.33-.75.75 0 .41.33.75.75.75Z" />
    </g>
</svg>